<svg height="428pt" viewBox="0 -13 428.12369 428" width="428pt" xmlns="http://www.w3.org/2000/svg"><path d="m350.253906 136.929688c-88.402344 74.480468-192.128906 128.355468-303.65625 158.351562-4.21875.480469-8.382812 1.464844-12.300781 3.472656-20.132813 10.3125-26.699219 37.714844-14.671875 61.203125 12.03125 23.488281 38.109375 34.171875 58.242188 23.859375 116.238281-29.253906 224.289062-84.59375 315.953124-161.824218zm0 0" fill="#e86436"/><path d="m61.414062 401.4375c-6.929687 0-13.984374-1.414062-20.878906-4.242188-14.011718-5.746093-25.757812-16.757812-33.066406-31.011718-15.425781-30.160156-6.1875-65.867188 20.601562-79.585938 4.730469-2.402344 9.945313-3.960937 15.90625-4.746094 108.933594-29.441406 211.785157-83.164062 297.480469-155.359374 3.171875-2.679688 7.425781-3.734376 11.492188-2.949219 4.082031.824219 7.558593 3.453125 9.453125 7.160156l43.574218 85.066406c2.90625 5.667969 1.503907 12.574219-3.347656 16.667969-92.359375 77.800781-203 134.585938-320.039062 164.28125-6.679688 3.144531-13.855469 4.71875-21.175782 4.71875zm284.429688-243.175781c-86.253906 69.480469-188.132812 121.277343-295.695312 150.214843-.652344.171876-1.332032.304688-2 .371094-3.160157.363282-5.601563 1.027344-7.652344 2.070313-13.375 6.851562-17.292969 26.0625-8.707032 42.8125 4.320313 8.464843 11.105469 14.933593 19.09375 18.199219 7.265626 2.988281 14.667969 2.894531 20.757813-.265626.921875-.464843 1.894531-.828124 2.894531-1.082031 110.050782-27.691406 214.292969-80.199219 302.144532-152.105469zm0 0" fill="#5c128d"/><path d="m408.480469 160.761719c-12.03125-23.488281-38.105469-34.171875-58.238281-23.859375-20.132813 10.316406-26.703126 37.71875-14.667969 61.207031 12.03125 23.488281 38.105469 34.167969 58.238281 23.855469s26.699219-37.714844 14.667969-61.203125zm0 0" fill="#e86436"/><path d="m377.375 239.609375c-6.933594 0-13.988281-1.414063-20.878906-4.238281-14.015625-5.746094-25.761719-16.761719-33.066406-31.015625-7.292969-14.253907-9.386719-30.210938-5.855469-44.945313 3.722656-15.507812 13.121093-27.800781 26.453125-34.640625 13.347656-6.8125 28.828125-7.28125 43.558594-1.226562 14.015624 5.746093 25.761718 16.757812 33.054687 31.011719h.011719c15.429687 30.160156 6.1875 65.855468-20.597656 79.589843-7.105469 3.636719-14.8125 5.464844-22.679688 5.464844zm-10.625-92.960937c-3.628906 0-7.109375.816406-10.269531 2.429687-6.132813 3.144531-10.519531 9.0625-12.34375 16.691406-2.015625 8.398438-.734375 17.679688 3.597656 26.132813 4.332031 8.464844 11.121094 14.933594 19.105469 18.199218 7.269531 2.988282 14.667968 2.894532 20.761718-.265624 13.398438-6.855469 17.320313-26.078126 8.746094-42.828126-4.332031-8.464843-11.121094-14.917968-19.105468-18.199218-3.519532-1.4375-7.066407-2.160156-10.492188-2.160156zm0 0" fill="#5c128d"/><path d="m383.730469 173.4375c-3.863281-7.539062-12.234375-10.96875-18.699219-7.65625-6.460938 3.308594-8.570312 12.109375-4.707031 19.648438 3.863281 7.539062 12.234375 10.96875 18.695312 7.660156 6.464844-3.3125 8.574219-12.109375 4.710938-19.652344zm0 0" fill="#5c128d"/><path d="m143.574219 170.515625c0-33.933594-61.4375-102.398437-61.4375-102.398437s-61.441407 68.464843-61.441407 102.398437 27.507813 61.441406 61.441407 61.441406c33.929687 0 61.4375-27.507812 61.4375-61.441406zm0 0" fill="#e86436"/><path d="m82.136719 245.609375c-41.402344 0-75.09375-33.695313-75.09375-75.09375 0-37.265625 54.089843-99.441406 64.933593-111.519531 5.171876-5.761719 15.144532-5.761719 20.316407 0 10.84375 12.078125 64.933593 74.253906 64.933593 111.519531 0 41.398437-33.691406 75.09375-75.089843 75.09375zm0-156.546875c-22.429688 27.109375-47.789063 64.347656-47.789063 81.453125 0 26.347656 21.441406 47.789063 47.789063 47.789063 26.34375 0 47.785156-21.441407 47.785156-47.789063 0-17.105469-25.359375-54.347656-47.785156-81.453125zm0 0" fill="#5c128d"/><path d="m244.269531 86.035156c0-24.035156-43.519531-72.53125-43.519531-72.53125s-43.523438 48.496094-43.523438 72.53125 19.488282 43.519532 43.523438 43.519532c24.03125 0 43.519531-19.484376 43.519531-43.519532zm0 0" fill="#e86436"/><path d="m200.75 143.207031c-31.523438 0-57.175781-25.652343-57.175781-57.171875 0-27.851562 39.160156-72.90625 47.015625-81.652344 5.171875-5.761718 15.144531-5.761718 20.316406 0 7.855469 8.746094 47.015625 53.796876 47.015625 81.652344 0 31.519532-25.652344 57.171875-57.171875 57.171875zm0-108.597656c-15.75 19.574219-29.867188 41.867187-29.867188 51.425781 0 16.464844 13.398438 29.867188 29.867188 29.867188 16.464844 0 29.863281-13.402344 29.863281-29.867188 0-9.558594-14.117187-31.851562-29.863281-51.425781zm0 0" fill="#5c128d"/><path d="m82.136719 211.476562c-22.589844 0-40.960938-18.375-40.960938-40.960937 0-7.546875 6.105469-13.652344 13.652344-13.652344s13.652344 6.105469 13.652344 13.652344c0 7.535156 6.121093 13.652344 13.65625 13.652344 7.546875 0 13.652343 6.109375 13.652343 13.65625s-6.105468 13.652343-13.652343 13.652343zm0 0" fill="#f6d831"/></svg>