<svg width="86" height="28" viewBox="0 0 86 28" fill="none" xmlns="http://www.w3.org/2000/svg">
<path d="M16.2054 14.56C16.2054 14.7947 16.2694 15.0187 16.3974 15.232C16.5467 15.424 16.7387 15.552 16.9734 15.616C16.7387 15.68 16.5467 15.808 16.3974 16C16.2694 16.192 16.2054 16.4053 16.2054 16.64V22.432C16.2054 23.4347 15.9707 24.256 15.5014 24.896C15.032 25.536 14.488 26.0373 13.8694 26.4C13.2507 26.7627 12.632 27.0187 12.0134 27.168C11.416 27.3173 10.9894 27.392 10.7334 27.392C11.2027 27.328 11.6294 27.1467 12.0134 26.848C12.3334 26.592 12.6214 26.1973 12.8774 25.664C13.1547 25.1307 13.2934 24.384 13.2934 23.424V10.4L10.1894 9.056V21.28V22.4L10.3174 22.528C10.488 22.6987 10.68 22.784 10.8934 22.784C11.128 22.784 11.3307 22.7093 11.5014 22.56L11.7574 22.336C11.7574 22.4427 11.64 22.6133 11.4054 22.848C11.1707 23.0827 10.904 23.3493 10.6054 23.648C10.3067 23.9467 10.0187 24.256 9.74138 24.576C9.46404 24.9173 9.28271 25.248 9.19738 25.568L7.27738 23.776V16.64C7.27738 16.1067 7.01071 15.7653 6.47738 15.616V15.584C7.01071 15.4347 7.27738 15.0933 7.27738 14.56V10.4L4.17338 9.056V22.4L4.30138 22.528C4.47204 22.6987 4.66404 22.784 4.87738 22.784C5.11204 22.784 5.31471 22.7093 5.48538 22.56L5.74138 22.336C5.74138 22.4427 5.62404 22.6133 5.38938 22.848C5.15471 23.0827 4.88804 23.3493 4.58938 23.648C4.29071 23.9467 4.00271 24.256 3.72538 24.576C3.44804 24.9173 3.26671 25.248 3.18138 25.568L1.26138 23.776V16.64C1.26138 16.1067 0.994708 15.7653 0.461375 15.616V15.584C0.994708 15.4347 1.26138 15.0933 1.26138 14.56V9.952V9.76C1.11204 9.71733 0.962708 9.65333 0.813375 9.568C0.685375 9.504 0.557375 9.42933 0.429375 9.344C0.301375 9.25867 0.194708 9.14133 0.109375 8.992L1.80538 6.432C1.99738 6.688 2.21071 6.93333 2.44538 7.168C2.68004 7.40267 2.91471 7.616 3.14938 7.808C3.38404 7.97867 3.60804 8.11733 3.82138 8.224C4.03471 8.30933 4.21604 8.352 4.36538 8.352C4.51471 8.16 4.67471 7.95733 4.84538 7.744C5.01604 7.50933 5.17604 7.28533 5.32538 7.072C5.49604 6.83733 5.66671 6.60267 5.83738 6.368C6.64804 6.752 7.38404 7.09333 8.04538 7.392C8.32271 7.52 8.58938 7.648 8.84538 7.776C9.12271 7.904 9.36804 8.02133 9.58138 8.128C9.79471 8.21333 9.96538 8.288 10.0934 8.352C10.2427 8.39467 10.328 8.416 10.3494 8.416C10.4987 8.224 10.648 8.01067 10.7974 7.776C10.968 7.54133 11.1387 7.31733 11.3094 7.104C11.48 6.86933 11.6614 6.624 11.8534 6.368L16.1414 8.352C16.312 8.416 16.472 8.43733 16.6214 8.416C16.7494 8.39467 16.8774 8.34133 17.0054 8.256C17.1547 8.14933 17.272 7.95733 17.3574 7.68C17.3787 7.936 17.3467 8.17067 17.2614 8.384C17.1974 8.55467 17.08 8.736 16.9094 8.928C16.7387 9.09867 16.504 9.20533 16.2054 9.248V14.56ZM26.1154 20.416C26.7767 20.416 27.278 20.2773 27.6194 20C27.9607 19.7013 28.2594 19.3813 28.5154 19.04C28.7927 18.6773 29.07 18.3467 29.3474 18.048C29.6247 17.7493 30.03 17.6 30.5634 17.6C30.1154 17.7067 29.838 17.9627 29.7314 18.368C29.6247 18.752 29.5714 19.2533 29.5714 19.872V20.896V22.208C28.7607 22.2933 28.0887 22.5173 27.5554 22.88C27.022 23.2213 26.5954 23.5947 26.2754 24C25.9767 24.4053 25.7634 24.768 25.6354 25.088C25.5287 25.408 25.4754 25.568 25.4754 25.568L25.2514 25.44L20.9314 23.776L20.6754 23.712C20.6754 23.712 20.622 23.7013 20.5154 23.68C20.43 23.6373 20.3234 23.6267 20.1954 23.648C20.0674 23.6693 19.9287 23.7333 19.7794 23.84C19.6514 23.9253 19.5554 24.1067 19.4914 24.384C19.47 24.128 19.502 23.8933 19.5874 23.68C19.6514 23.5093 19.758 23.3387 19.9074 23.168C20.078 22.9973 20.3234 22.88 20.6434 22.816V16.704C20.6434 16.1707 20.3767 15.8293 19.8434 15.68L19.8754 15.648C20.11 15.584 20.2914 15.456 20.4194 15.264C20.5687 15.072 20.6434 14.8587 20.6434 14.624V9.92C21.454 9.83467 22.126 9.62133 22.6594 9.28C23.1927 8.91733 23.6087 8.53333 23.9074 8.128C24.2274 7.72267 24.4407 7.36 24.5474 7.04C24.6754 6.72 24.7394 6.56 24.7394 6.56L24.9634 6.688L29.2834 8.352L29.5394 8.416C29.5394 8.416 29.582 8.43733 29.6674 8.48C29.774 8.50133 29.8914 8.512 30.0194 8.512C30.1474 8.49067 30.2754 8.42667 30.4034 8.32C30.5527 8.21333 30.6594 8.02133 30.7234 7.744C30.7447 8 30.7127 8.23467 30.6274 8.448C30.5634 8.61867 30.446 8.8 30.2754 8.992C30.126 9.16267 29.8914 9.26933 29.5714 9.312V10.4C29.5714 10.7627 29.7527 11.0187 30.1154 11.168C29.4114 11.168 28.8034 11.4027 28.2914 11.872C27.7794 12.32 27.2887 12.832 26.8194 13.408C26.35 13.984 25.8594 14.528 25.3474 15.04C24.8567 15.5307 24.2594 15.8187 23.5554 15.904V21.664L26.6594 22.848V22.048V21.216V21.152C26.6594 20.768 26.478 20.5227 26.1154 20.416ZM23.5554 9.248V15.52C23.8967 15.4347 24.2487 15.2533 24.6114 14.976C24.974 14.6987 25.3047 14.3787 25.6034 14.016C25.9234 13.6533 26.1794 13.2693 26.3714 12.864C26.5634 12.4587 26.6594 12.064 26.6594 11.68V10.464L23.5554 9.248ZM44.5206 22.336C44.5206 22.4427 44.4033 22.6133 44.1686 22.848C43.934 23.0827 43.6673 23.3493 43.3686 23.648C43.07 23.9467 42.782 24.256 42.5046 24.576C42.2273 24.9173 42.046 25.248 41.9606 25.568L40.0406 23.584C39.5926 24.0533 39.2833 24.4907 39.1126 24.896C38.942 25.3227 38.8566 25.5467 38.8566 25.568L38.6326 25.44L34.3126 23.776L34.0886 23.712C33.918 23.648 33.758 23.6267 33.6086 23.648C33.4806 23.6693 33.342 23.7333 33.1926 23.84C33.0646 23.9253 32.958 24.1067 32.8726 24.384C32.8513 24.128 32.8833 23.8933 32.9686 23.68C33.0326 23.5093 33.1393 23.3387 33.2886 23.168C33.4593 22.9973 33.7046 22.88 34.0246 22.816V21.024V16.576C33.982 16.0853 33.726 15.7867 33.2566 15.68H33.2246L33.2566 15.648C33.726 15.5413 33.982 15.2427 34.0246 14.752V9.92C34.8566 9.83467 35.5286 9.62133 36.0406 9.28C36.574 8.91733 36.99 8.53333 37.2886 8.128C37.6086 7.72267 37.822 7.36 37.9286 7.04C38.0566 6.72 38.1206 6.56 38.1206 6.56L38.3766 6.688L40.0406 7.328V6.208V3.328C39.8913 3.28533 39.742 3.22133 39.5926 3.136C39.4646 3.072 39.3366 2.99733 39.2086 2.912C39.0806 2.82667 38.974 2.70933 38.8886 2.56L40.5846 -1.90735e-06C41.1393 0.575998 41.6086 0.991999 41.9926 1.248C42.3766 1.48267 42.7073 1.62133 42.9846 1.664C43.2833 1.728 43.55 1.696 43.7846 1.568C43.7206 1.696 43.646 1.80267 43.5606 1.888C43.4753 1.97333 43.3793 2.06933 43.2726 2.176C43.166 2.26133 43.0593 2.336 42.9526 2.4V14.72C42.974 14.9547 43.0486 15.1573 43.1766 15.328C43.326 15.4987 43.518 15.6053 43.7526 15.648V15.68C43.518 15.7227 43.326 15.8507 43.1766 16.064C43.0273 16.256 42.9526 16.4693 42.9526 16.704V22.208V22.4L43.1126 22.528C43.2833 22.6773 43.4753 22.7627 43.6886 22.784C43.902 22.784 44.094 22.7093 44.2646 22.56L44.5206 22.336ZM40.0406 10.464L36.9366 9.248V21.024V21.664L40.0406 22.848V19.296V13.632V10.464ZM58.2769 22.336C58.2769 22.4427 58.1595 22.6133 57.9249 22.848C57.6902 23.0827 57.4235 23.3493 57.1249 23.648C56.8262 23.9467 56.5382 24.256 56.2609 24.576C55.9835 24.9173 55.8022 25.248 55.7169 25.568L53.7969 23.776V23.584C53.3489 24.0533 53.0395 24.4907 52.8689 24.896C52.6982 25.3227 52.6129 25.5467 52.6129 25.568L52.3889 25.44L48.0689 23.776L47.8129 23.712C47.8129 23.712 47.7595 23.7013 47.6529 23.68C47.5675 23.6373 47.4609 23.6267 47.3329 23.648C47.2049 23.6693 47.0662 23.7333 46.9169 23.84C46.7889 23.9253 46.6929 24.1067 46.6289 24.384C46.6075 24.128 46.6395 23.8933 46.7249 23.68C46.7889 23.5093 46.8955 23.3387 47.0449 23.168C47.2155 22.9973 47.4609 22.88 47.7809 22.816V16.704C47.7809 16.4693 47.7062 16.256 47.5569 16.064C47.4289 15.872 47.2475 15.744 47.0129 15.68H46.9809L47.0129 15.648C47.2475 15.584 47.4289 15.456 47.5569 15.264C47.7062 15.072 47.7809 14.8587 47.7809 14.624V9.888C47.6315 9.84533 47.4822 9.78133 47.3329 9.696C47.2049 9.632 47.0769 9.55733 46.9489 9.472C46.8209 9.38667 46.7142 9.26933 46.6289 9.12L48.3249 6.56C48.8795 7.136 49.3489 7.552 49.7329 7.808C50.1169 8.04267 50.4475 8.18133 50.7249 8.224C51.0235 8.288 51.2902 8.256 51.5249 8.128C51.4609 8.256 51.3862 8.36267 51.3009 8.448C51.2155 8.53333 51.1195 8.62933 51.0129 8.736C50.9062 8.82133 50.7995 8.896 50.6929 8.96V21.664L53.7969 22.848V9.888C53.6475 9.84533 53.4982 9.78133 53.3489 9.696C53.2209 9.632 53.0929 9.55733 52.9649 9.472C52.8369 9.38667 52.7302 9.26933 52.6449 9.12L54.3409 6.56C54.8955 7.136 55.3649 7.552 55.7489 7.808C56.1329 8.04267 56.4635 8.18133 56.7409 8.224C57.0395 8.288 57.3062 8.256 57.5409 8.128C57.4769 8.256 57.4022 8.36267 57.3169 8.448C57.2315 8.53333 57.1355 8.62933 57.0289 8.736C56.9222 8.82133 56.8155 8.896 56.7089 8.96V14.624C56.7089 14.8587 56.7729 15.072 56.9009 15.264C57.0502 15.456 57.2422 15.584 57.4769 15.648L57.5089 15.68C57.2742 15.7227 57.0822 15.8507 56.9329 16.064C56.7835 16.256 56.7089 16.4693 56.7089 16.704V22.208V22.4L56.8369 22.528C57.0075 22.6773 57.1995 22.7627 57.4129 22.784C57.6475 22.784 57.8502 22.7093 58.0209 22.56L58.2769 22.336ZM71.6171 7.744C71.6385 8 71.6065 8.23467 71.5211 8.448C71.4571 8.61867 71.3398 8.8 71.1691 8.992C71.0198 9.16267 70.7851 9.26933 70.4651 9.312V14.592C70.0598 14.592 69.6011 14.72 69.0891 14.976C68.5771 15.2107 68.0118 15.4987 67.3931 15.84C67.0945 15.9893 66.7851 16.1493 66.4651 16.32C66.1451 16.4693 65.8145 16.6293 65.4731 16.8C65.1745 16.9493 64.9291 17.1733 64.7371 17.472C64.5451 17.7493 64.4491 18.0587 64.4491 18.4L64.4811 21.664H64.4491L67.5211 22.848V21.088C67.4785 20.7467 67.2971 20.5227 66.9771 20.416C67.6385 20.416 68.1398 20.2773 68.4811 20C68.8225 19.7013 69.1211 19.3813 69.3771 19.04C69.6545 18.6773 69.9318 18.3467 70.2091 18.048C70.5078 17.7493 70.9238 17.6 71.4571 17.6C71.0091 17.7067 70.7318 17.9627 70.6251 18.368C70.5185 18.752 70.4651 19.2533 70.4651 19.872V22.208C69.6545 22.2933 68.9825 22.5173 68.4491 22.88C67.9158 23.2213 67.4891 23.5947 67.1691 24C66.8705 24.4053 66.6571 24.768 66.5291 25.088C66.4225 25.408 66.3691 25.568 66.3691 25.568L66.1451 25.44L61.8251 23.776L61.5691 23.712C61.5691 23.712 61.5158 23.7013 61.4091 23.68C61.3238 23.6373 61.2171 23.6267 61.0891 23.648C60.9611 23.6693 60.8225 23.7333 60.6731 23.84C60.5451 23.9253 60.4491 24.1067 60.3851 24.384C60.3638 24.128 60.3958 23.8933 60.4811 23.68C60.5451 23.5093 60.6518 23.3387 60.8011 23.168C60.9718 22.9973 61.2171 22.88 61.5371 22.816V17.216C62.5611 17.1733 63.5318 16.9493 64.4491 16.544C65.3878 16.1387 66.2625 15.712 67.0731 15.264C67.3718 15.0933 67.5211 14.8267 67.5211 14.464L67.5531 10.464L64.4491 9.248V10.4C64.4491 10.7627 64.6305 11.0187 64.9931 11.168C64.3318 11.168 63.8305 11.3173 63.4891 11.616C63.1478 11.8933 62.8385 12.2133 62.5611 12.576C62.3051 12.9173 62.0385 13.2373 61.7611 13.536C61.4838 13.8133 61.0785 13.952 60.5451 13.952C60.9931 13.8453 61.2705 13.6 61.3771 13.216C61.4838 12.8107 61.5371 12.2987 61.5371 11.68V9.92C62.3478 9.83467 63.0198 9.62133 63.5531 9.28C64.0865 8.91733 64.5025 8.53333 64.8011 8.128C65.1211 7.72267 65.3345 7.36 65.4411 7.04C65.5691 6.72 65.6331 6.56 65.6331 6.56L70.4331 8.416C70.4331 8.416 70.4758 8.43733 70.5611 8.48C70.6678 8.50133 70.7851 8.512 70.9131 8.512C71.0411 8.49067 71.1691 8.42667 71.2971 8.32C71.4465 8.21333 71.5531 8.02133 71.6171 7.744ZM85.4144 22.336C85.4144 22.4427 85.297 22.6133 85.0624 22.848C84.8277 23.0827 84.561 23.3493 84.2624 23.648C83.9637 23.9467 83.6757 24.256 83.3984 24.576C83.121 24.9173 82.9397 25.248 82.8544 25.568L80.9344 23.584C80.4864 24.0533 80.177 24.4907 80.0064 24.896C79.8357 25.3227 79.7504 25.5467 79.7504 25.568L79.5264 25.44L75.2064 23.776L74.9504 23.712C74.9504 23.712 74.897 23.7013 74.7904 23.68C74.705 23.6373 74.5984 23.6267 74.4704 23.648C74.3424 23.6693 74.2037 23.7333 74.0544 23.84C73.9264 23.9253 73.8304 24.1067 73.7664 24.384C73.745 24.128 73.777 23.8933 73.8624 23.68C73.9264 23.5093 74.033 23.3387 74.1824 23.168C74.353 22.9973 74.5984 22.88 74.9184 22.816V19.456C74.9184 18.8587 74.6624 18.368 74.1504 17.984C74.961 17.984 75.6437 17.8133 76.1984 17.472C76.7744 17.1093 77.3077 16.7253 77.7984 16.32C78.289 15.8933 78.769 15.52 79.2384 15.2C79.729 14.8587 80.2944 14.72 80.9344 14.784V10.464L77.8304 9.248V11.68C77.8304 12.2987 77.8837 12.8107 77.9904 13.216C78.1184 13.6 78.4064 13.8453 78.8544 13.952C78.321 13.952 77.905 13.8133 77.6064 13.536C77.329 13.2373 77.0517 12.9173 76.7744 12.576C76.5184 12.2133 76.2197 11.8933 75.8784 11.616C75.537 11.3173 75.0357 11.168 74.3744 11.168C74.737 11.0187 74.9184 10.7627 74.9184 10.4V9.92C75.729 9.83467 76.401 9.62133 76.9344 9.28C77.4677 8.91733 77.8837 8.53333 78.1824 8.128C78.5024 7.72267 78.7157 7.36 78.8224 7.04C78.9504 6.72 79.0144 6.56 79.0144 6.56L79.2384 6.688L83.5584 8.352L83.8144 8.416C83.8144 8.416 83.857 8.43733 83.9424 8.48C84.049 8.50133 84.1664 8.512 84.2944 8.512C84.4224 8.49067 84.5504 8.42667 84.6784 8.32C84.8277 8.21333 84.9344 8.02133 84.9984 7.744C85.0197 8 84.9877 8.23467 84.9024 8.448C84.8384 8.61867 84.721 8.8 84.5504 8.992C84.401 9.16267 84.1664 9.26933 83.8464 9.312V14.624C83.8464 14.8587 83.9104 15.072 84.0384 15.264C84.1877 15.456 84.3797 15.584 84.6144 15.648L84.6464 15.68C84.4117 15.7227 84.2197 15.8507 84.0704 16.064C83.921 16.256 83.8464 16.4693 83.8464 16.704V22.208V22.4L83.9744 22.528C84.145 22.6773 84.337 22.7627 84.5504 22.784C84.785 22.784 84.9877 22.7093 85.1584 22.56L85.4144 22.336ZM80.9344 15.264C80.6357 15.2427 80.3264 15.296 80.0064 15.424C79.7077 15.5307 79.4197 15.712 79.1424 15.968C78.865 16.2027 78.609 16.5013 78.3744 16.864C78.161 17.2053 77.9904 17.5893 77.8624 18.016V21.664L80.9344 22.848V15.264Z" fill="#BF9A63"/>
</svg>
